<?xml version="1.0" encoding="UTF-8" standalone="no"?>
<svg
   width="512"
   height="512"
   viewBox="0 0 128 128"
   version="1.1"
   id="svg11"
   sodipodi:docname="circuit.svg"
   inkscape:version="1.1 (c4e8f9ed74, 2021-05-24)"
   xmlns:inkscape="http://www.inkscape.org/namespaces/inkscape"
   xmlns:sodipodi="http://sodipodi.sourceforge.net/DTD/sodipodi-0.dtd"
   xmlns="http://www.w3.org/2000/svg"
   xmlns:svg="http://www.w3.org/2000/svg">
  <sodipodi:namedview
     id="namedview13"
     pagecolor="#505050"
     bordercolor="#eeeeee"
     borderopacity="1"
     inkscape:pageshadow="0"
     inkscape:pageopacity="0"
     inkscape:pagecheckerboard="0"
     showgrid="false"
     inkscape:zoom="0.55664063"
     inkscape:cx="-19.761403"
     inkscape:cy="246.1193"
     inkscape:window-width="1366"
     inkscape:window-height="743"
     inkscape:window-x="0"
     inkscape:window-y="25"
     inkscape:window-maximized="1"
     inkscape:current-layer="svg11" />
  <defs
     id="defs7">
    <linearGradient
       id="a"
       x1="110.312"
       y1="110.313"
       x2="17.687"
       y2="17.688"
       gradientUnits="userSpaceOnUse">
      <stop
         offset="0"
         stop-color="#465cc9"
         id="stop2"
         style="stop-color:#465cc9;stop-opacity:1" />
      <stop
         offset="1"
         stop-color="#00aaff"
         id="stop4"
         style="stop-color:#00aaff;stop-opacity:1" />
    </linearGradient>
  </defs>
  <path
     d="M94.5,59.71h19.594a4.751,4.751,0,1,0,0-3.5H94.5v-.96a1.75,1.75,0,0,0-3.5,0V91H37V37H91V47.082a1.745,1.745,0,0,0,3.407.538H107.13a1.751,1.751,0,0,0,1.75-1.75V34.34h5.214a4.751,4.751,0,1,0,0-3.5H107.13a1.751,1.751,0,0,0-1.75,1.75V44.12H94.5V35.25a1.751,1.751,0,0,0-1.75-1.75H83.88V22.62H95.41a1.751,1.751,0,0,0,1.75-1.75V13.906a4.749,4.749,0,1,0-3.5,0V19.12H82.13a1.751,1.751,0,0,0-1.75,1.75V33.5H71.79V13.907a4.749,4.749,0,1,0-3.5,0V33.5H59.71V13.906a4.751,4.751,0,1,0-3.5,0V33.5H47.62V20.87a1.751,1.751,0,0,0-1.75-1.75H34.34V13.906a4.751,4.751,0,1,0-3.5,0V20.87a1.751,1.751,0,0,0,1.75,1.75H44.12V33.5H35.25a1.751,1.751,0,0,0-1.75,1.75v8.87H22.62V32.59a1.751,1.751,0,0,0-1.75-1.75H13.907a4.75,4.75,0,1,0,0,3.5H19.12V45.87a1.751,1.751,0,0,0,1.75,1.75H33.5v8.59H13.907a4.749,4.749,0,1,0,0,3.5H33.5v8.58H13.906a4.751,4.751,0,1,0,0,3.5H33.5v8.59H20.87a1.751,1.751,0,0,0-1.75,1.75V93.66H13.906a4.751,4.751,0,1,0,0,3.5H20.87a1.751,1.751,0,0,0,1.75-1.75V83.88H33.5v8.87a1.751,1.751,0,0,0,1.75,1.75h8.87v10.88H32.59a1.751,1.751,0,0,0-1.75,1.75v6.964a4.749,4.749,0,1,0,3.5,0V108.88H45.87a1.751,1.751,0,0,0,1.75-1.75V94.5h8.59v19.593a4.749,4.749,0,1,0,3.5,0V94.5h8.58v19.594a4.751,4.751,0,1,0,3.5,0V94.5h8.59v12.63a1.751,1.751,0,0,0,1.75,1.75H93.66v5.214a4.75,4.75,0,1,0,3.5,0V107.13a1.751,1.751,0,0,0-1.75-1.75H83.88V94.5h8.87a1.751,1.751,0,0,0,1.75-1.75V83.88h10.88V95.41a1.751,1.751,0,0,0,1.75,1.75h6.964a4.749,4.749,0,1,0,0-3.5H108.88V82.13a1.751,1.751,0,0,0-1.75-1.75H94.5V71.79h19.593a4.749,4.749,0,1,0,0-3.5H94.5Zm24-3a1.25,1.25,0,1,1-1.25,1.25A1.252,1.252,0,0,1,118.5,56.708Zm0-25.369a1.25,1.25,0,1,1-1.25,1.25A1.252,1.252,0,0,1,118.5,31.339ZM95.411,8.25a1.25,1.25,0,1,1-1.25,1.25A1.252,1.252,0,0,1,95.411,8.25Zm-25.369,0a1.25,1.25,0,1,1-1.25,1.25A1.252,1.252,0,0,1,70.042,8.25Zm-12.084,0a1.25,1.25,0,1,1-1.25,1.25A1.251,1.251,0,0,1,57.958,8.25Zm-25.369,0a1.25,1.25,0,1,1-1.25,1.25A1.251,1.251,0,0,1,32.589,8.25ZM9.5,33.839a1.25,1.25,0,1,1,1.25-1.25A1.251,1.251,0,0,1,9.5,33.839Zm0,25.369a1.25,1.25,0,1,1,1.25-1.25A1.251,1.251,0,0,1,9.5,59.208Zm0,12.084a1.25,1.25,0,1,1,1.25-1.25A1.252,1.252,0,0,1,9.5,71.292Zm0,25.369a1.25,1.25,0,1,1,1.25-1.25A1.252,1.252,0,0,1,9.5,96.661ZM32.589,119.75a1.25,1.25,0,1,1,1.25-1.25A1.252,1.252,0,0,1,32.589,119.75Zm25.369,0a1.25,1.25,0,1,1,1.25-1.25A1.252,1.252,0,0,1,57.958,119.75Zm12.084,0a1.25,1.25,0,1,1,1.25-1.25A1.251,1.251,0,0,1,70.042,119.75Zm25.369,0a1.25,1.25,0,1,1,1.25-1.25A1.251,1.251,0,0,1,95.411,119.75ZM118.5,94.161a1.25,1.25,0,1,1-1.25,1.25A1.251,1.251,0,0,1,118.5,94.161Zm0-25.369a1.25,1.25,0,1,1-1.25,1.25A1.251,1.251,0,0,1,118.5,68.792Zm-76,4.25V69.083a1.75,1.75,0,0,1,3.5,0v3.959a1.75,1.75,0,0,1-3.5,0Zm0,6.041a1.75,1.75,0,0,1,3.5,0V82H82V46H46V62a1.75,1.75,0,0,1-3.5,0V44.25a1.751,1.751,0,0,1,1.75-1.75h39.5a1.751,1.751,0,0,1,1.75,1.75v39.5a1.751,1.751,0,0,1-1.75,1.75H44.25a1.751,1.751,0,0,1-1.75-1.75Zm35.25-12.5A1.751,1.751,0,0,1,76,64.833V54.958a1.75,1.75,0,0,1,3.5,0v9.875A1.751,1.751,0,0,1,77.75,66.583Z"
     fill="url(#a)"
     id="path9" />
</svg>
